<svg width="160" height="29" viewBox="0 0 160 29" fill="none" xmlns="http://www.w3.org/2000/svg">
<path d="M159.985 0.390684H96.0842V1.45671H159.985V0.390684ZM101.95 12.5227C101.953 12.9652 101.875 13.4044 101.72 13.8189C101.569 14.2222 101.332 14.5872 101.024 14.888C100.686 15.209 100.286 15.4565 99.8485 15.6148C99.3103 15.8058 98.7418 15.8971 98.1708 15.8843C97.9931 15.8843 97.8255 15.8843 97.6681 15.8843L97.2108 15.8631L96.7656 15.8328L96.2962 15.7874V9.39734C96.6152 9.361 96.918 9.33475 97.2047 9.3186C97.4914 9.30245 97.7942 9.29337 98.1132 9.29135C98.6861 9.27993 99.2567 9.36699 99.8001 9.54877C100.248 9.69775 100.66 9.93686 101.012 10.2514C101.324 10.5382 101.569 10.8909 101.729 11.2841C101.883 11.6798 101.958 12.1014 101.95 12.5257V12.5227ZM100.76 12.5227C100.762 12.2126 100.708 11.9048 100.6 11.6142C100.497 11.3422 100.334 11.0976 100.121 10.8994C99.8926 10.6926 99.6234 10.5358 99.3307 10.4391C98.979 10.324 98.6105 10.2687 98.2405 10.2756C97.9619 10.273 97.6835 10.2912 97.4076 10.3301V14.8728C97.5428 14.8968 97.6793 14.912 97.8165 14.9182C97.9517 14.9182 98.1264 14.9182 98.3404 14.9182C98.7098 14.9268 99.0775 14.8662 99.4246 14.7396C99.7098 14.6322 99.9674 14.4625 100.179 14.2429C100.382 14.028 100.534 13.7703 100.624 13.4888C100.722 13.1773 100.769 12.8521 100.763 12.5257L100.76 12.5227ZM103.546 15.8328V9.31557H104.655V15.8207H103.546V15.8328ZM110.176 13.9945C110.177 14.25 110.127 14.5032 110.03 14.7396C109.933 14.9744 109.788 15.186 109.603 15.3604C109.408 15.5434 109.178 15.6864 108.928 15.7813C108.638 15.8899 108.329 15.9423 108.019 15.9358C107.65 15.9359 107.282 15.8755 106.932 15.7571C106.595 15.6465 106.274 15.4917 105.978 15.2968L106.36 14.3034C106.619 14.4981 106.904 14.6542 107.208 14.7668C107.485 14.8708 107.778 14.9252 108.074 14.9273C108.225 14.9305 108.376 14.9059 108.519 14.8546C108.631 14.814 108.734 14.7512 108.822 14.6699C108.901 14.5948 108.962 14.5026 109.001 14.4004C109.039 14.2967 109.059 14.1869 109.058 14.0763C109.058 13.9737 109.043 13.8716 109.013 13.7735C108.976 13.668 108.914 13.5726 108.834 13.4949C108.722 13.3863 108.597 13.2926 108.462 13.2162C108.259 13.1006 108.048 12.9994 107.832 12.9134C107.366 12.7483 106.95 12.4692 106.62 12.1017C106.391 11.8067 106.269 11.4425 106.275 11.0691C106.275 10.8306 106.324 10.5947 106.421 10.3767C106.517 10.1586 106.659 9.96324 106.835 9.80315C107.032 9.62675 107.262 9.49001 107.511 9.40037C107.802 9.29523 108.11 9.24392 108.419 9.24895C108.727 9.24791 109.034 9.29385 109.328 9.38522C109.582 9.46076 109.824 9.57297 110.045 9.71834L109.691 10.6935C109.602 10.635 109.501 10.5774 109.388 10.5209C109.283 10.4641 109.174 10.4155 109.061 10.3755C108.948 10.3344 108.833 10.3 108.716 10.2726C108.604 10.2465 108.489 10.2333 108.374 10.2332C108.099 10.2097 107.826 10.2957 107.614 10.4724C107.535 10.5451 107.473 10.6333 107.431 10.7313C107.389 10.8293 107.367 10.9351 107.368 11.0418C107.367 11.1478 107.39 11.2527 107.435 11.3486C107.48 11.4446 107.546 11.5291 107.629 11.596C107.893 11.7998 108.185 11.966 108.495 12.0897C108.772 12.2087 109.039 12.3495 109.294 12.5106C109.486 12.6305 109.659 12.7785 109.806 12.9497C109.928 13.0947 110.02 13.2625 110.076 13.4434C110.136 13.6223 110.171 13.8089 110.179 13.9976L110.176 13.9945ZM117.002 15.3271C116.702 15.5118 116.381 15.6583 116.045 15.7632C115.669 15.8833 115.276 15.9436 114.882 15.9419C114.399 15.9469 113.919 15.8606 113.468 15.6875C113.055 15.53 112.679 15.2922 112.359 14.9879C112.048 14.6881 111.801 14.3273 111.635 13.9279C111.46 13.5025 111.373 13.0463 111.378 12.5863C111.373 12.1281 111.462 11.6737 111.638 11.2508C111.806 10.8491 112.053 10.4855 112.365 10.1817C112.684 9.87479 113.061 9.63486 113.474 9.47608C113.922 9.30347 114.399 9.21713 114.879 9.22167C115.267 9.219 115.653 9.27622 116.024 9.39128C116.357 9.49396 116.676 9.63739 116.975 9.8183L116.593 10.7602C116.326 10.6093 116.044 10.4885 115.751 10.3997C115.464 10.3107 115.165 10.2648 114.864 10.2635C114.537 10.259 114.212 10.3166 113.907 10.4331C113.634 10.5378 113.387 10.7 113.183 10.9085C112.981 11.119 112.825 11.3698 112.726 11.6444C112.616 11.9473 112.562 12.2673 112.565 12.5894C112.561 12.9107 112.616 13.2301 112.729 13.5312C112.832 13.8051 112.991 14.0546 113.195 14.2641C113.403 14.4728 113.653 14.6349 113.928 14.7396C114.235 14.856 114.562 14.9136 114.891 14.9091C115.199 14.9067 115.505 14.8588 115.799 14.7668C116.103 14.6766 116.394 14.5516 116.669 14.3943L117.002 15.3271ZM124.688 12.5833C124.692 13.0409 124.605 13.4947 124.434 13.9188C124.273 14.3177 124.034 14.6802 123.731 14.9848C123.43 15.2846 123.073 15.5223 122.68 15.6844C122.264 15.8564 121.817 15.9429 121.366 15.9388C120.92 15.9425 120.478 15.8559 120.067 15.6844C119.679 15.5235 119.327 15.2855 119.034 14.9848C118.739 14.6782 118.508 14.3158 118.356 13.9188C118.19 13.4933 118.106 13.04 118.11 12.5833C118.106 12.1227 118.192 11.6658 118.365 11.2386C118.524 10.8413 118.761 10.4801 119.063 10.1767C119.365 9.87333 119.725 9.63401 120.121 9.47305C120.536 9.3021 120.981 9.21563 121.429 9.21867C121.877 9.21405 122.321 9.30059 122.735 9.47305C123.122 9.63559 123.472 9.87455 123.764 10.1756C124.059 10.4824 124.29 10.8448 124.443 11.2417C124.609 11.6703 124.692 12.1266 124.688 12.5863V12.5833ZM123.498 12.5833C123.501 12.2628 123.449 11.9441 123.343 11.6414C123.248 11.3656 123.102 11.1099 122.913 10.8873C122.732 10.6758 122.507 10.5064 122.253 10.3907C121.987 10.2699 121.698 10.2089 121.405 10.212C121.112 10.2094 120.822 10.2704 120.554 10.3907C120.298 10.5052 120.071 10.6748 119.888 10.8873C119.699 11.1099 119.553 11.3656 119.458 11.6414C119.251 12.2513 119.251 12.9123 119.458 13.5221C119.553 13.7974 119.698 14.0522 119.888 14.2732C120.077 14.4885 120.31 14.6606 120.571 14.7777C120.832 14.8948 121.116 14.9541 121.402 14.9515C121.695 14.955 121.985 14.8929 122.25 14.7698C122.502 14.652 122.727 14.4828 122.91 14.2732C123.1 14.0522 123.246 13.7974 123.34 13.5221C123.447 13.2217 123.502 12.9052 123.501 12.5863L123.498 12.5833ZM128.646 15.9146H128.504L125.497 9.32163H126.766L128.583 13.6523L130.4 9.32163H131.632L128.646 15.9146ZM132.692 15.8268V9.31557H136.66V10.3271H133.801V12.0412H136.384V13.0163H133.801V14.8183H136.66V15.8298H132.692V15.8268ZM141.85 15.8268L140.43 13.4827H140.26H139.758H139.434V15.8359H138.325V9.39128C138.586 9.36099 138.853 9.33576 139.128 9.31557C139.402 9.29538 139.705 9.28529 140.036 9.28529C140.44 9.2773 140.842 9.33145 141.23 9.44581C141.532 9.53577 141.814 9.68389 142.059 9.88189C142.271 10.0553 142.437 10.2778 142.544 10.53C142.649 10.7865 142.701 11.0615 142.698 11.3386C142.706 11.7386 142.592 12.1315 142.371 12.4652C142.137 12.8025 141.81 13.0644 141.429 13.2193L143.134 15.8389H141.847L141.85 15.8268ZM141.532 11.381C141.538 11.2291 141.508 11.0781 141.447 10.9392C141.386 10.8002 141.294 10.6769 141.178 10.5785C140.895 10.3604 140.542 10.2528 140.185 10.2756C140.049 10.2756 139.919 10.2756 139.794 10.2756C139.675 10.2814 139.556 10.2965 139.44 10.321V12.5409C139.541 12.553 139.642 12.5621 139.743 12.5681H140.067C140.457 12.5977 140.844 12.4847 141.157 12.2501C141.281 12.1435 141.379 12.0108 141.446 11.8616C141.512 11.7124 141.545 11.5503 141.541 11.387L141.532 11.381ZM144.337 15.8268V9.31557H145.445V15.8207H144.337V15.8268ZM152.447 15.9509L148.395 11.6626V15.8328H147.286V9.23986L147.465 9.20352L151.487 13.4434V9.31557H152.595V15.9176L152.447 15.9509ZM160 12.3834V15.2241C159.656 15.4466 159.284 15.6227 158.895 15.748C158.468 15.8784 158.023 15.9417 157.577 15.9358C157.125 15.9371 156.676 15.854 156.254 15.6905C155.847 15.5353 155.473 15.3029 155.154 15.0061C154.659 14.5219 154.322 13.8986 154.189 13.2187C154.056 12.5388 154.133 11.8345 154.409 11.1993C154.773 10.3942 155.442 9.76675 156.269 9.45487C156.687 9.29532 157.13 9.21423 157.577 9.21564C158.006 9.20794 158.434 9.26928 158.843 9.39734C159.209 9.52011 159.558 9.68582 159.885 9.89098L159.379 10.7783C159.116 10.6079 158.83 10.4735 158.531 10.3786C158.238 10.2842 157.931 10.2362 157.623 10.2362C157.284 10.2296 156.947 10.2914 156.632 10.4179C156.357 10.5311 156.111 10.7026 155.909 10.9207C155.711 11.1369 155.559 11.3901 155.46 11.6657C155.356 11.9572 155.304 12.2647 155.306 12.5742C155.303 12.9008 155.364 13.2247 155.485 13.5282C155.595 13.81 155.763 14.0657 155.978 14.2792C156.415 14.709 157.004 14.9485 157.617 14.9455C157.861 14.9497 158.105 14.9242 158.343 14.8698C158.548 14.8175 158.745 14.7381 158.928 14.6336V13.3555H157.414V12.3804H159.997L160 12.3834ZM98.9763 22.4349V27.9285H97.868V22.4349H95.7995V21.4294H101.036V22.4409H98.9763V22.4349ZM106.423 27.9285V25.1332H103.431V27.9285H102.323V21.4294H103.431V24.1551H106.423V21.4294H107.532V27.9346H106.423V27.9285ZM109.306 27.9285V21.4294H113.274V22.4409H110.415V24.1551H112.998V25.1302H110.415V26.9322H113.274V27.9437H109.328L109.306 27.9285ZM118.304 22.4349V24.3337H120.836V25.318H118.325V27.9285H117.202V21.4294H121.169V22.4409H118.31L118.304 22.4349ZM127.604 25.4331C127.611 25.8099 127.547 26.1847 127.417 26.5385C127.303 26.8455 127.124 27.1243 126.893 27.3561C126.66 27.583 126.379 27.7556 126.072 27.8619C125.722 27.9815 125.354 28.0399 124.985 28.0345C124.639 28.0558 124.292 28.0078 123.965 27.8934C123.638 27.779 123.337 27.6004 123.08 27.3683C122.628 26.9241 122.402 26.279 122.402 25.4331V21.4294H123.51V25.3664C123.474 25.82 123.614 26.2702 123.901 26.6233C124.204 26.8907 124.594 27.0382 124.998 27.0382C125.403 27.0382 125.793 26.8907 126.096 26.6233C126.384 26.2726 126.525 25.8246 126.49 25.3725V21.4355H127.598V25.4482L127.604 25.4331ZM131.99 22.4349V27.9285H130.881V22.4349H128.813V21.4294H134.049V22.4409H131.99V22.4349ZM140.469 25.4331C140.475 25.8099 140.412 26.1847 140.282 26.5385C140.168 26.8455 139.989 27.1243 139.758 27.3561C139.525 27.583 139.244 27.7556 138.937 27.8619C138.587 27.9815 138.219 28.0399 137.85 28.0345C137.504 28.0558 137.157 28.0078 136.83 27.8934C136.503 27.779 136.202 27.6004 135.945 27.3683C135.493 26.9241 135.266 26.279 135.266 25.4331V21.4294H136.375V25.3664C136.339 25.82 136.479 26.2702 136.766 26.6233C137.069 26.8907 137.459 27.0382 137.863 27.0382C138.268 27.0382 138.658 26.8907 138.961 26.6233C139.249 26.2726 139.39 25.8246 139.355 25.3725V21.4355H140.463V25.4482L140.469 25.4331ZM145.697 27.9285L144.276 25.5845H144.107H143.604H143.28V27.9376H142.171V21.493C142.432 21.4627 142.699 21.4375 142.974 21.4173C143.249 21.3971 143.551 21.387 143.882 21.387C144.286 21.379 144.689 21.4332 145.076 21.5476C145.378 21.6375 145.66 21.7856 145.906 21.9836C146.117 22.1571 146.284 22.3795 146.39 22.6317C146.495 22.8883 146.547 23.1632 146.545 23.4403C146.552 23.8404 146.438 24.2333 146.217 24.5669C145.983 24.9042 145.656 25.1662 145.276 25.321L146.981 27.9406H145.693L145.697 27.9285ZM145.379 23.4827C145.384 23.3309 145.355 23.1799 145.293 23.0409C145.232 22.902 145.14 22.7786 145.024 22.6802C144.741 22.4622 144.388 22.3545 144.031 22.3773C143.896 22.3773 143.765 22.3773 143.64 22.3773C143.521 22.3831 143.403 22.3983 143.286 22.4228V24.6426C143.387 24.6547 143.488 24.6638 143.589 24.6699H143.913C144.303 24.6994 144.69 24.5865 145.003 24.3519C145.126 24.2453 145.224 24.113 145.29 23.9644C145.356 23.8157 145.388 23.6544 145.385 23.4918L145.379 23.4827ZM148.137 27.9285V21.4294H152.105V22.4409H149.246V24.1551H151.829V25.1302H149.246V26.9322H152.105V27.9437H148.137V27.9285ZM28.4252 0L42.0805 28.0133H35.527L33.5372 23.722H25.2877L27.6559 18.6493H31.0418L28.4282 12.874L21.3265 28.0164H14.7729L28.4252 0ZM55.4664 11.7838L53.9824 11.1205C51.4476 9.98787 50.2362 9.20957 50.2362 7.76499C50.2362 6.51727 51.3295 5.85401 52.3834 5.85401C53.6705 5.85401 54.5306 6.20534 55.9327 7.92248L60.1454 3.47364C57.8043 0.748023 55.4633 0 52.3804 0C47.9709 0 43.9521 3.16173 43.9521 7.99819C43.9521 11.7444 46.2538 14.8274 50.43 16.699L51.9897 17.4016C54.3307 18.4555 55.2271 19.2338 55.2271 20.4846C55.2271 21.7353 54.4064 22.4742 52.5742 22.4742C50.6632 22.4742 48.6735 20.96 47.4621 19.04L42.7408 22.9013C44.6517 26.49 48.2435 28.3253 52.6893 28.3253C57.8377 28.3253 61.5082 25.0878 61.5082 20.0939C61.5203 16.281 59.2974 13.507 55.4725 11.7898L55.4664 11.7838ZM63.8128 0.311941V6.4779H70.4452V17.2456V28.0133H76.6868V6.4779H82.4197L85.4482 0.311941H63.8159H63.8128ZM0 28.0224H6.24167V17.1896H14.1399L14.0702 11.1811H6.24167V6.49908H17.0897L20.0908 0.333124H0V28.0345V28.0224Z" fill="white"/>
</svg>
